<?xml version="1.0" standalone="no"?>
<!DOCTYPE svg PUBLIC "-//W3C//DTD SVG 20010904//EN"
 "http://www.w3.org/TR/2001/REC-SVG-20010904/DTD/svg10.dtd">
<svg version="1.0" xmlns="http://www.w3.org/2000/svg"
 width="1024.000000pt" height="1024.000000pt" viewBox="0 0 1024.000000 1024.000000"
 preserveAspectRatio="xMidYMid meet">

<g transform="translate(0.000000,1024.000000) scale(0.100000,-0.100000)"
fill="#000000" stroke="none">
<path d="M0 5120 l0 -5120 5120 0 5120 0 0 5120 0 5120 -5120 0 -5120 0 0
-5120z m5600 3690 c69 -5 139 -10 156 -10 29 0 31 -2 26 -27 -6 -34 -18 -43
-59 -43 -19 0 -43 -9 -58 -22 l-25 -23 -36 -458 c-39 -503 -39 -503 21 -519
57 -15 288 -22 327 -9 44 15 88 62 124 134 15 29 27 53 29 55 1 1 16 -1 33 -4
20 -4 32 -12 32 -23 0 -23 -77 -272 -87 -281 -4 -4 -111 3 -238 16 -126 12
-312 28 -412 35 l-183 12 0 34 c0 30 3 33 29 33 40 0 90 19 100 39 14 26 20
80 41 376 11 154 25 342 31 418 6 76 8 149 5 162 -4 17 -20 29 -59 43 -47 18
-52 23 -55 52 l-3 33 68 -7 c37 -3 124 -11 193 -16z m-1079 -107 c107 -48 160
-124 167 -244 7 -124 -36 -214 -140 -289 l-37 -27 172 -182 c191 -201 236
-237 308 -247 42 -6 50 -11 55 -31 4 -16 2 -28 -6 -33 -7 -4 -64 -14 -127 -21
-107 -12 -117 -11 -149 6 -31 16 -151 143 -343 362 -34 39 -69 74 -78 77 -8 3
-39 3 -70 -1 l-55 -6 6 -51 c24 -185 59 -363 75 -379 10 -10 41 -20 76 -25 56
-6 60 -9 63 -34 2 -16 2 -28 0 -28 -2 0 -82 -14 -178 -31 -252 -44 -251 -44
-261 -28 -18 29 -8 45 41 66 37 16 51 28 56 48 4 17 -21 204 -64 484 -80 510
-71 483 -161 495 -48 6 -51 8 -51 36 0 33 -11 29 165 55 55 8 147 24 205 35
133 25 265 22 331 -7z m2831 -217 c179 -63 311 -189 370 -356 19 -55 22 -85
22 -190 0 -108 -4 -136 -27 -205 -68 -204 -218 -360 -402 -418 -190 -59 -439
1 -583 141 -110 108 -162 225 -170 387 -15 317 186 594 479 660 89 20 220 12
311 -19z m-4126 -146 c36 -56 67 -107 70 -114 3 -7 -7 -21 -21 -30 -25 -16
-26 -16 -51 13 -37 44 -125 85 -168 77 -35 -7 -177 -66 -265 -111 l-51 -25 15
-38 c59 -139 159 -363 164 -367 8 -5 198 76 235 100 31 21 47 72 36 120 -7 33
-6 37 22 51 16 9 31 14 32 12 2 -2 19 -43 39 -93 19 -49 49 -121 66 -158 17
-38 31 -73 31 -77 0 -5 -12 -12 -27 -17 -25 -9 -30 -6 -56 29 -34 48 -69 63
-111 48 -76 -26 -226 -96 -226 -106 0 -6 37 -94 83 -195 97 -217 105 -225 189
-196 29 10 99 41 155 68 81 39 108 57 128 87 29 44 49 130 42 183 -4 32 -2 38
17 43 51 14 52 13 80 -135 16 -77 26 -142 24 -145 -4 -4 -146 -66 -393 -173
-60 -27 -170 -76 -244 -110 -74 -34 -137 -58 -141 -54 -24 26 -20 51 15 77 50
38 57 57 41 103 -29 81 -360 819 -375 837 -13 15 -27 17 -78 14 -60 -4 -63 -3
-72 23 -9 27 -8 28 72 60 95 37 370 161 537 242 63 30 116 56 118 56 1 1 32
-44 68 -99z m5569 -612 c130 -43 233 -118 380 -275 l86 -92 -67 -113 c-85
-144 -83 -142 -113 -119 l-24 19 16 59 c22 78 21 121 -4 188 -28 74 -105 152
-196 196 -64 32 -74 34 -173 34 -101 0 -108 -1 -184 -38 -172 -82 -317 -286
-347 -490 -21 -140 19 -264 115 -361 71 -70 219 -140 252 -118 14 10 130 163
155 206 27 46 20 79 -28 128 -34 35 -36 39 -23 63 7 14 17 25 21 25 5 0 79
-52 166 -116 87 -63 169 -123 182 -132 23 -17 23 -17 4 -41 -19 -24 -21 -24
-64 -9 -35 12 -51 13 -72 4 -26 -11 -144 -159 -193 -243 l-25 -41 -82 22
c-305 85 -510 263 -572 496 -49 185 18 416 166 575 99 105 217 170 353 195 71
12 200 2 271 -22z m-6834 -67 l94 -89 -23 -25 -24 -25 -49 30 c-65 41 -131 48
-185 20 -39 -20 -254 -187 -254 -198 0 -4 225 -302 266 -353 4 -5 146 104 191
145 27 26 33 39 33 73 0 23 -7 55 -15 71 -14 26 -13 29 10 44 13 9 26 16 29
16 2 0 51 -63 109 -139 l105 -139 -23 -22 -24 -23 -41 37 c-60 54 -79 50 -204
-45 -58 -45 -106 -85 -106 -89 0 -12 217 -291 251 -322 16 -16 37 -28 47 -28
37 0 263 174 288 221 23 45 28 112 14 185 -12 62 -12 68 6 81 10 7 25 12 32
11 8 -2 41 -61 73 -132 48 -104 57 -132 47 -141 -7 -7 -103 -81 -213 -166
-110 -84 -256 -198 -323 -253 -98 -79 -126 -96 -133 -85 -28 42 -28 46 -4 69
13 12 29 35 36 51 11 27 9 34 -25 82 -73 105 -542 700 -561 713 -17 11 -29 10
-75 -6 -50 -17 -55 -17 -67 -2 -20 27 -16 38 26 65 44 29 450 348 526 414 28
23 55 43 61 43 6 0 53 -40 105 -89z m-1058 -1005 c57 -21 100 -58 132 -117 24
-45 29 -66 29 -124 1 -38 -3 -82 -7 -98 l-7 -27 48 30 c72 44 129 61 205 62
119 0 211 -62 263 -177 67 -151 30 -285 -138 -496 -50 -63 -124 -159 -166
-214 -41 -55 -78 -104 -82 -108 -4 -4 -18 2 -32 13 l-26 20 19 37 c23 46 24
72 1 99 -15 19 -306 253 -619 497 -124 97 -145 103 -200 61 -31 -23 -38 -25
-59 -14 -13 8 -24 17 -24 21 0 4 16 27 36 51 20 23 76 95 125 159 48 64 110
143 138 177 110 132 249 189 364 148z m9216 -147 c30 -39 45 -8 -213 -447
-112 -191 -231 -396 -266 -456 -74 -130 -84 -174 -50 -237 l22 -43 -24 -18
c-13 -9 -26 -18 -30 -18 -3 0 -28 30 -54 68 -27 37 -84 111 -129 165 -109 133
-103 122 -75 145 l25 20 33 -29 c20 -18 44 -29 61 -29 26 0 36 11 107 133 42
72 83 141 90 152 12 19 3 33 -102 163 -64 78 -122 142 -130 142 -27 0 -286
-99 -305 -116 -24 -21 -24 -38 1 -93 19 -41 19 -45 4 -63 -10 -10 -22 -18 -28
-18 -6 0 -31 29 -56 63 -25 34 -70 91 -101 127 -73 86 -74 88 -53 111 22 25
30 24 66 -6 16 -14 42 -25 58 -25 15 0 171 45 346 101 478 152 758 238 769
238 6 0 21 -14 34 -30z m-5109 -866 c0 -10 -7 -43 -15 -73 -19 -72 -19 -181 1
-228 14 -34 82 -129 127 -177 11 -11 31 -36 45 -55 15 -19 50 -65 79 -101 105
-131 203 -399 203 -553 0 -67 -18 -188 -46 -304 -19 -78 -25 -130 -25 -219 0
-130 4 -140 74 -197 134 -108 379 46 403 255 8 67 -11 140 -62 242 -55 109
-39 132 76 107 114 -26 220 -131 270 -267 28 -74 34 -106 38 -199 10 -236 -57
-415 -219 -588 -106 -114 -343 -266 -371 -238 -9 9 -5 20 20 49 130 157 264
383 227 383 -3 0 -42 -29 -86 -66 -119 -96 -175 -130 -264 -160 -92 -30 -156
-29 -221 4 -50 25 -68 46 -93 105 -12 28 -26 47 -34 45 -6 -3 -26 -26 -44 -52
-63 -96 -127 -146 -203 -161 -76 -14 -273 73 -417 185 -69 53 -89 56 -72 12
29 -78 89 -161 201 -279 81 -85 95 -113 56 -113 -49 0 -206 72 -318 146 -171
112 -262 250 -279 421 -11 109 0 213 33 293 12 30 64 122 115 204 51 82 106
178 122 212 56 125 60 240 13 360 -31 79 -31 88 4 79 88 -21 265 -175 306
-265 57 -124 67 -248 30 -351 -34 -97 -8 -92 97 19 142 149 208 271 229 423
17 122 -20 221 -132 353 -90 106 -149 226 -156 316 -4 56 0 76 29 150 48 124
99 198 184 268 44 35 75 42 75 15z m-2466 -104 c24 -11 54 -31 66 -44 30 -32
330 -448 465 -645 59 -85 138 -198 176 -250 39 -52 102 -142 141 -200 39 -58
94 -136 122 -175 71 -96 109 -158 147 -239 27 -58 34 -88 41 -180 5 -61 8
-156 5 -211 -3 -84 -9 -112 -35 -172 -30 -71 -85 -160 -146 -236 -45 -56 -161
-141 -246 -181 -131 -60 -177 -69 -324 -64 -139 5 -224 26 -336 83 -27 14
-200 150 -383 303 -184 152 -395 326 -468 387 -74 60 -181 150 -239 200 -58
49 -155 130 -216 180 -122 99 -159 140 -176 197 -22 74 -2 107 151 258 75 74
189 182 254 240 64 58 196 177 294 265 98 87 180 162 183 165 39 41 334 303
360 319 45 27 107 27 164 0z m5651 -131 c-22 -35 -68 -103 -103 -152 -183
-254 -293 -446 -357 -626 -31 -89 -42 -209 -26 -294 24 -126 90 -170 256 -169
220 1 398 81 764 343 251 179 272 193 278 186 20 -20 -169 -220 -366 -386 -69
-58 -184 -149 -255 -202 -72 -53 -142 -106 -156 -116 -54 -42 -248 -146 -339
-184 -115 -47 -203 -68 -294 -68 -38 0 -84 -7 -105 -16 -25 -10 -122 -102
-296 -280 -142 -145 -266 -264 -274 -264 -26 0 -142 121 -142 148 0 15 34 59
103 133 56 61 122 134 147 162 25 29 86 95 136 147 50 52 98 106 105 120 7 14
16 70 20 125 11 176 96 417 215 610 121 196 252 379 363 505 152 173 345 359
359 346 3 -3 -12 -34 -33 -68z m-1493 -2215 c56 -47 109 -107 115 -131 3 -13
1 -34 -5 -46 -5 -13 -81 -101 -169 -197 -87 -95 -172 -189 -189 -209 -17 -19
-80 -91 -140 -159 -60 -68 -129 -147 -154 -176 -25 -28 -91 -103 -147 -166
-57 -63 -135 -150 -174 -194 -40 -44 -97 -107 -128 -140 -31 -33 -88 -98 -128
-145 -39 -47 -91 -106 -115 -132 l-44 -48 -350 0 -350 0 -32 43 c-40 54 -131
163 -302 361 -74 86 -152 178 -174 204 -39 49 -139 166 -261 306 -39 45 -99
117 -135 161 -35 44 -114 139 -175 210 -131 154 -145 173 -145 201 0 26 150
164 179 164 10 0 292 -276 684 -670 450 -453 673 -670 687 -670 13 0 77 55
173 148 83 81 177 170 207 197 83 75 313 289 410 380 47 44 121 114 165 156
113 106 315 300 497 477 119 116 140 124 200 75z m-5050 -137 c24 -30 83 -97
132 -150 l89 -97 -20 -20 -20 -20 -38 25 c-51 35 -70 33 -98 -11 -53 -85 -319
-594 -314 -600 4 -3 35 7 69 22 35 15 144 61 243 102 99 41 190 81 202 89 26
17 83 123 83 155 0 12 -10 39 -22 60 -21 38 -21 39 -2 54 10 8 22 13 26 12 3
-1 68 -69 143 -150 113 -122 135 -150 125 -162 -17 -20 -33 -19 -72 5 -42 26
-61 25 -92 -2 -24 -22 -312 -605 -303 -614 7 -7 612 286 625 303 18 25 15 46
-12 86 l-24 35 22 21 22 20 112 -122 c111 -121 112 -122 92 -142 -19 -19 -21
-19 -49 -2 -48 28 -95 21 -220 -34 -141 -63 -518 -238 -660 -308 l-105 -51
-23 22 c-13 12 -23 29 -23 37 0 9 70 160 154 336 84 176 152 321 151 323 -1 1
-150 -61 -331 -137 l-329 -140 -30 30 -30 29 62 123 c34 67 110 212 169 322
251 473 257 488 217 544 -16 23 -15 25 6 43 13 10 25 18 26 18 2 0 23 -24 47
-54z m7235 -143 c40 -27 73 -52 73 -58 -1 -5 -7 -18 -15 -29 -12 -16 -18 -17
-46 -7 -49 17 -110 13 -147 -9 -97 -59 -96 -207 2 -225 39 -8 81 11 179 80 88
61 143 85 200 85 88 0 175 -67 198 -152 29 -108 -15 -224 -125 -332 -112 -109
-100 -107 -200 -40 -82 54 -86 58 -72 78 10 15 22 20 42 18 16 -1 59 -4 95 -5
59 -2 69 1 103 27 47 36 80 105 72 150 -10 51 -58 91 -110 91 -35 0 -58 -10
-137 -62 -125 -83 -160 -96 -231 -91 -69 5 -119 40 -156 109 -20 37 -23 54
-19 109 2 41 13 82 27 110 23 46 165 200 184 200 5 0 43 -21 83 -47z m-4551
-20 c79 -60 162 -110 279 -168 93 -45 133 -59 258 -84 181 -38 257 -39 447 -6
144 25 146 25 333 118 103 52 187 90 187 84 0 -6 -18 -33 -39 -62 -40 -53
-106 -113 -431 -390 -102 -87 -221 -196 -265 -242 -44 -46 -87 -83 -95 -83
-20 1 -212 206 -275 294 -51 70 -158 195 -314 364 -81 88 -171 206 -171 224 0
12 28 -4 86 -49z m4118 -482 c15 -16 23 -32 18 -35 -5 -3 -37 -37 -71 -75
l-61 -69 163 -152 c89 -84 176 -161 192 -172 68 -41 140 -7 166 80 12 42 29
51 58 33 21 -13 8 -93 -25 -158 -35 -67 -82 -108 -145 -124 -75 -20 -122 10
-334 210 l-180 170 -37 -42 c-32 -35 -41 -40 -55 -31 -12 8 -17 22 -16 45 7
138 5 165 -19 225 l-24 61 21 27 22 27 70 -66 c39 -36 75 -65 81 -65 5 0 37
32 71 70 35 39 66 70 70 70 4 0 20 -13 35 -29z m-509 -36 c35 -34 33 -78 -4
-116 -35 -35 -50 -36 -100 -7 -51 29 -85 16 -102 -40 -10 -36 -9 -45 13 -93
23 -50 133 -199 147 -199 3 0 37 28 76 61 l69 62 27 -33 28 -32 -70 -61 c-38
-34 -69 -65 -69 -69 0 -4 75 -97 168 -205 118 -140 174 -199 191 -201 14 -2
47 7 74 19 48 23 49 23 63 4 8 -10 14 -22 14 -25 0 -3 -21 -22 -47 -42 -27
-20 -93 -75 -147 -122 -55 -47 -103 -86 -107 -86 -3 0 -13 7 -20 16 -11 14
-10 22 9 55 12 21 22 47 22 58 0 19 -324 411 -346 418 -5 2 -29 -13 -52 -33
-41 -35 -44 -36 -62 -19 -27 24 -26 30 15 86 l36 48 -41 60 c-86 125 -106 248
-58 352 63 137 206 212 273 144z m-581 -511 c20 -21 26 -36 26 -71 0 -94 -105
-139 -171 -74 -65 66 -20 171 74 171 35 0 50 -6 71 -26z m-4680 -223 c75 -36
151 -106 172 -156 21 -51 17 -122 -10 -181 -13 -27 -64 -114 -115 -191 -50
-78 -96 -154 -101 -169 -15 -38 -3 -64 37 -80 24 -11 33 -20 29 -30 -3 -9 -6
-20 -6 -25 0 -16 -94 -9 -137 10 -54 25 -78 63 -77 121 l2 45 -87 0 c-69 0
-94 4 -127 22 -126 67 -172 166 -125 268 59 130 217 148 442 51 l80 -34 30 46
c41 64 53 114 39 158 -15 43 -68 84 -119 91 -41 6 -43 5 -105 -68 -22 -26 -59
-24 -95 7 -51 43 -35 109 33 140 53 24 163 13 240 -25z m777 -31 c22 -12 49
-61 49 -89 0 -54 -51 -101 -110 -101 -41 0 -100 56 -100 95 0 33 16 65 44 87
23 20 87 24 117 8z m4065 -27 c14 -21 87 -130 161 -243 74 -113 148 -218 164
-235 28 -29 29 -29 76 -17 43 12 49 11 60 -4 7 -10 13 -20 13 -23 -1 -8 -296
-201 -307 -201 -4 0 -14 9 -21 21 -12 18 -10 24 12 46 31 30 39 54 29 80 -5
11 -64 106 -133 212 -134 206 -144 215 -207 192 -35 -13 -63 -3 -63 23 0 12
170 186 182 186 5 0 20 -17 34 -37z m-981 -100 c15 -38 58 -146 97 -241 l70
-172 28 58 c72 152 246 224 359 149 56 -37 87 -88 175 -287 42 -96 85 -183 94
-193 12 -14 28 -18 65 -16 47 3 66 -8 67 -36 0 -6 -73 -44 -161 -85 -154 -70
-162 -73 -175 -55 -19 25 -18 31 9 52 47 37 50 56 22 127 -67 167 -135 303
-172 344 -35 37 -45 42 -82 42 -82 0 -155 -57 -180 -141 -12 -38 -10 -45 70
-232 44 -106 86 -198 91 -204 6 -8 33 -13 63 -13 39 0 54 -4 59 -16 10 -26 7
-34 -16 -44 -13 -5 -83 -34 -156 -65 -72 -30 -138 -55 -146 -55 -7 0 -16 10
-19 22 -5 17 2 29 28 51 19 16 35 37 35 48 0 21 -25 84 -202 509 -156 373
-138 343 -204 338 -47 -4 -57 -2 -65 15 -6 10 -7 23 -2 27 23 22 200 140 209
140 7 0 24 -30 39 -67z m-3301 -189 c56 -15 108 -30 117 -35 15 -7 -1 -47
-112 -291 -71 -156 -129 -291 -129 -301 0 -11 16 -35 35 -54 30 -30 33 -37 24
-60 -5 -14 -15 -23 -22 -20 -31 13 -322 149 -325 152 -1 1 2 14 9 28 10 23 14
24 47 15 71 -20 78 -10 211 284 39 87 71 169 71 182 0 16 -13 34 -36 53 -29
23 -35 34 -30 51 9 28 18 28 140 -4z m2981 -99 c19 -66 30 -123 27 -127 -4 -3
-18 -8 -32 -10 -20 -2 -29 5 -49 41 -41 75 -92 118 -154 130 -164 35 -306 -92
-249 -222 33 -75 90 -106 257 -142 128 -27 187 -45 232 -71 108 -62 167 -187
145 -306 -28 -153 -156 -252 -360 -279 -76 -10 -228 -3 -267 11 -16 6 -27 35
-54 134 -18 70 -31 129 -29 131 3 3 18 7 34 10 27 5 32 1 65 -57 62 -108 147
-155 262 -145 102 9 183 75 194 157 8 59 -5 107 -40 147 -42 47 -84 65 -247
104 -74 17 -158 42 -186 55 -178 83 -217 310 -79 449 82 82 190 115 369 112
l128 -2 33 -120z m-2355 66 c0 -4 -13 -46 -29 -94 -16 -48 -27 -88 -23 -90 4
-3 45 -17 92 -32 47 -15 88 -29 92 -32 7 -4 -9 -50 -23 -67 -4 -5 -48 4 -98
19 -50 16 -93 26 -95 24 -8 -7 -134 -405 -141 -443 -16 -83 43 -134 142 -122
29 3 53 3 53 -1 0 -5 3 -18 6 -29 5 -18 -1 -24 -42 -38 -122 -41 -257 -4 -302
84 -33 64 -26 106 57 363 39 120 71 224 71 231 0 7 -17 18 -37 24 -57 18 -65
25 -57 55 4 19 13 27 28 27 62 0 131 33 190 90 55 53 62 57 88 48 15 -6 28
-13 28 -17z m708 -341 c67 -29 127 -96 147 -163 15 -51 20 -152 9 -181 -9 -22
-54 -20 -289 13 -110 16 -202 26 -205 24 -3 -3 -4 -36 -4 -74 4 -156 102 -257
252 -259 58 0 109 18 159 56 l32 24 17 -25 c17 -25 16 -27 -17 -61 -44 -46
-141 -93 -206 -101 -67 -7 -165 12 -226 45 -173 93 -227 334 -123 540 24 48
101 128 147 152 85 46 215 50 307 10z m858 -25 c47 -19 70 -72 54 -121 -23
-68 -84 -83 -140 -34 -58 49 -105 35 -147 -43 -16 -28 -18 -58 -17 -233 1
-123 6 -209 13 -222 7 -14 30 -24 73 -34 57 -12 63 -16 63 -38 l0 -25 -202 -3
-203 -2 0 29 c0 24 5 29 32 35 67 13 68 17 67 240 -1 214 -8 309 -26 327 -6 6
-29 13 -52 16 -37 5 -41 8 -41 33 0 27 3 29 88 48 48 11 103 23 123 27 l36 7
9 -79 9 -78 17 30 c38 69 128 134 186 135 12 0 38 -7 58 -15z m4254 -129 c0
-13 7 -29 15 -36 22 -18 18 -32 -7 -26 -13 3 -17 3 -10 0 6 -3 9 -11 6 -16 -4
-7 -2 -8 4 -4 7 4 20 2 29 -4 15 -9 15 -11 2 -7 -9 3 -21 1 -27 -5 -15 -15
-41 7 -37 30 1 9 0 12 -2 6 -2 -7 -13 -14 -24 -17 -16 -4 -14 1 11 26 22 22
27 33 18 39 -10 6 -10 8 1 8 7 0 11 6 7 15 -3 8 -1 15 4 15 6 0 10 -11 10 -24z
m-35 -95 c-3 -6 3 -15 14 -20 24 -14 44 -14 36 -2 -9 16 12 22 27 8 7 -7 34
-24 61 -37 50 -25 57 -34 32 -44 -9 -3 -15 0 -15 8 0 7 -7 20 -16 27 -12 9
-10 3 5 -24 11 -20 16 -37 11 -37 -5 0 -7 -7 -4 -15 4 -8 10 -12 15 -9 5 3 7
10 4 15 -4 5 2 9 12 10 16 0 16 1 -2 8 -19 8 -19 8 4 16 13 4 27 3 33 -3 7 -7
-9 -24 -46 -51 -30 -23 -60 -41 -66 -41 -5 0 -10 -7 -10 -16 0 -8 -4 -13 -9
-9 -5 3 -12 1 -16 -5 -3 -5 -11 -10 -16 -10 -6 0 -8 4 -4 9 3 6 -3 14 -13 20
-22 12 -63 11 -56 -1 3 -4 0 -8 -5 -8 -6 0 -11 6 -11 13 0 8 -4 7 -10 -3 -8
-13 -10 -12 -10 3 0 9 -7 17 -15 17 -12 0 -13 4 -6 18 13 24 12 35 -6 55 -17
18 -5 25 13 7 7 -7 10 -2 10 15 0 13 -6 27 -14 30 -10 3 -12 0 -8 -10 5 -14 2
-16 -24 -19 -11 -1 -14 13 -2 15 4 1 13 10 20 20 7 11 20 19 28 19 8 0 14 7
14 16 0 8 4 13 9 9 5 -3 12 -1 16 5 3 5 11 10 16 10 6 0 8 -4 4 -9z m-86 -127
c6 -13 7 -24 2 -24 -5 0 -12 6 -14 13 -3 7 -6 5 -6 -5 -1 -11 -6 -15 -15 -12
-8 3 -13 11 -10 18 3 8 -4 12 -18 12 -13 -1 -23 5 -24 14 0 8 1 10 3 3 3 -7 9
-13 14 -13 6 0 7 5 4 10 -3 6 -4 14 0 20 9 15 51 -9 64 -36z m341 16 c0 -5 -4
-10 -10 -10 -5 0 -10 5 -10 10 0 6 5 10 10 10 6 0 10 -4 10 -10z m-221 -113
c8 -11 21 -17 33 -14 14 4 12 -2 -12 -26 -22 -22 -27 -33 -18 -39 10 -6 10 -8
-1 -8 -7 0 -11 -6 -7 -15 3 -8 1 -15 -4 -15 -6 0 -10 11 -10 24 0 14 -5 28
-12 32 -7 5 -5 12 8 22 18 13 18 14 -5 7 -16 -5 -21 -4 -17 4 4 6 0 14 -9 17
-14 6 -14 8 2 19 23 17 34 15 52 -8z"/>
<path d="M4198 8627 c-32 -8 -60 -15 -62 -18 -3 -3 10 -103 29 -223 19 -121
35 -223 35 -228 0 -12 58 -10 115 6 142 37 205 124 191 260 -17 162 -137 241
-308 203z"/>
<path d="M7138 8420 c-149 -26 -299 -194 -358 -400 -75 -267 2 -512 189 -598
211 -98 436 37 539 322 83 229 57 452 -67 577 -82 81 -193 118 -303 99z"/>
<path d="M688 6498 c-21 -5 -58 -28 -83 -50 -45 -40 -105 -118 -105 -136 0
-10 309 -262 321 -262 10 0 84 102 108 149 43 83 22 185 -50 245 -65 55 -126
72 -191 54z"/>
<path d="M1118 6215 c-55 -20 -100 -58 -161 -133 -30 -37 -57 -72 -60 -79 -8
-12 318 -278 360 -294 36 -13 77 12 128 81 83 113 92 196 35 297 -63 109 -200
168 -302 128z"/>
<path d="M9695 6330 c-124 -42 -200 -72 -200 -80 0 -18 168 -230 179 -226 10
2 230 366 224 370 -1 2 -93 -27 -203 -64z"/>
<path d="M2346 5161 c-30 -33 -15 -81 53 -168 82 -105 154 -198 366 -473 99
-128 206 -265 238 -304 31 -39 78 -100 104 -136 70 -98 103 -130 133 -130 33
0 60 28 60 63 0 24 -13 44 -119 180 -25 33 -82 105 -126 162 -44 57 -123 158
-175 226 -52 67 -133 170 -179 228 -46 58 -108 138 -137 176 -146 196 -178
221 -218 176z"/>
<path d="M2066 4911 c-28 -31 -14 -61 72 -159 42 -49 131 -151 197 -227 66
-76 183 -210 260 -298 77 -88 167 -192 200 -232 181 -215 222 -250 264 -223
51 32 37 66 -80 193 -95 104 -304 341 -696 790 -158 180 -180 196 -217 156z"/>
<path d="M1826 4684 c-38 -38 -48 -25 354 -444 125 -129 307 -321 406 -426 98
-105 192 -199 207 -208 54 -34 110 9 88 68 -9 21 -314 337 -811 839 -189 191
-210 205 -244 171z"/>
<path d="M1562 4458 c-25 -13 -37 -46 -27 -77 3 -11 66 -75 138 -143 73 -67
197 -183 277 -258 80 -75 172 -160 205 -190 33 -30 98 -91 145 -135 227 -214
301 -275 334 -275 40 0 56 16 56 55 0 28 -16 47 -122 146 -156 145 -360 332
-418 383 -25 22 -141 132 -258 245 -189 182 -282 263 -301 260 -3 0 -16 -5
-29 -11z"/>
<path d="M3533 3563 c-7 -3 -35 -44 -63 -93 -28 -48 -67 -107 -87 -130 -68
-79 -205 -164 -332 -205 -44 -14 -51 -19 -37 -27 23 -13 166 17 225 47 70 35
180 133 226 200 36 53 95 200 84 209 -2 2 -10 1 -16 -1z"/>
<path d="M2343 1270 c-112 -74 -58 -220 81 -220 72 0 91 13 151 102 l55 83
-62 24 c-88 34 -183 38 -225 11z"/>
<path d="M4368 860 c-44 -24 -82 -71 -102 -127 l-15 -41 37 -6 c167 -25 274
-37 287 -32 24 9 19 93 -7 146 -39 75 -123 100 -200 60z"/>
<path d="M9670 726 c0 -2 9 -6 20 -9 11 -3 18 -1 14 4 -5 9 -34 13 -34 5z"/>
<path d="M9765 593 c13 -10 17 -33 7 -33 -5 0 -9 -7 -9 -15 0 -8 4 -12 8 -9
16 9 19 -15 3 -30 -8 -9 -11 -16 -6 -16 17 0 34 29 25 42 -4 7 -8 24 -8 37 0
13 -7 26 -15 28 -9 3 -11 1 -5 -4z"/>
<path d="M9691 414 c0 -11 3 -14 6 -6 3 7 2 16 -1 19 -3 4 -6 -2 -5 -13z"/>
</g>
</svg>
